<svg xmlns="http://www.w3.org/2000/svg" viewBox="0 0 128 160" x="0px" y="0px"><title>Autumn - Solid -  25 Icon Set - 128 Pixel</title><g data-name="Layer 3"><path d="M18.77,119.24a2.91,2.91,0,0,0,2.9,2.91H78.93a2.91,2.91,0,0,0,0-5.81H21.67A2.9,2.9,0,0,0,18.77,119.24Z"/><path d="M25,22.73c.29-.65.57-1.27.86-1.87.42-.92.88-1.8,1.34-2.7.39-.74.78-1.5,1.17-2.32A16,16,0,0,0,30,9.89a12.13,12.13,0,0,0-.43-4c-.27.57-.52,1.12-.76,1.66s-.58,1.3-.88,1.92c-.43.94-.9,1.84-1.38,2.76-.37.72-.75,1.46-1.14,2.26a15.88,15.88,0,0,0-1.7,5.94,11.74,11.74,0,0,0,.44,4.05Z"/><path d="M48.37,22.72c.29-.64.57-1.26.86-1.86.42-.92.88-1.79,1.34-2.7.38-.74.78-1.5,1.17-2.32a16,16,0,0,0,1.7-5.95,11.87,11.87,0,0,0-.43-4c-.27.57-.52,1.12-.76,1.67s-.58,1.29-.87,1.91c-.45,1-.9,1.83-1.39,2.77-.37.72-.75,1.45-1.14,2.25a15.88,15.88,0,0,0-1.7,5.94,11.74,11.74,0,0,0,.44,4.05C47.87,23.86,48.12,23.29,48.37,22.72Z"/><path d="M71.79,22.73c.29-.64.57-1.27.86-1.87.43-.92.88-1.8,1.35-2.71.38-.73.77-1.49,1.17-2.31a16.43,16.43,0,0,0,1.7-5.95,12.13,12.13,0,0,0-.44-4c-.27.57-.51,1.12-.76,1.66s-.57,1.3-.87,1.92c-.44,1-.9,1.83-1.39,2.77-.37.71-.75,1.45-1.14,2.25a16.07,16.07,0,0,0-1.7,5.94A12,12,0,0,0,71,24.45C71.29,23.86,71.54,23.29,71.79,22.73Z"/><path d="M50.3,113a39.31,39.31,0,0,0,38.83-33,40.17,40.17,0,0,0,.51-6.35V34.36H11V73.7A39.39,39.39,0,0,0,50.3,113Z"/><path d="M94.54,48a16.62,16.62,0,0,1,0,33.23H91c-.07.35-.13.69-.2,1s-.1.4-.14.61c-.1.42-.2.85-.31,1.27l-.18.68L89.76,86c-.07.22-.13.43-.21.64a3.58,3.58,0,0,1-.11.35h5.1a22.42,22.42,0,0,0,0-44.84h-2.9V48Z"/></g><text x="0" y="143" fill="#000000" font-size="5px" font-weight="bold" font-family="'Helvetica Neue', Helvetica, Arial-Unicode, Arial, Sans-serif">Created by Ian Rahmadi Kurniawan</text><text x="0" y="148" fill="#000000" font-size="5px" font-weight="bold" font-family="'Helvetica Neue', Helvetica, Arial-Unicode, Arial, Sans-serif">from the Noun Project</text></svg>